<?xml version="1.0" encoding="UTF-8" standalone="no"?>
<!DOCTYPE svg PUBLIC "-//W3C//DTD SVG 1.1//EN"
 "http://www.w3.org/Graphics/SVG/1.1/DTD/svg11.dtd">
<!-- Generated by graphviz version 2.38.0 (20140413.2041)
 -->
<!-- Title: %3 Pages: 1 -->
<svg width="864pt" height="436pt"
 viewBox="0.00 0.00 864.00 435.78" xmlns="http://www.w3.org/2000/svg" xmlns:xlink="http://www.w3.org/1999/xlink">
<g id="graph0" class="graph" transform="scale(0.604407 0.604407) rotate(0) translate(4 717)">
<title>%3</title>
<polygon fill="white" stroke="none" points="-4,4 -4,-717 1425.5,-717 1425.5,4 -4,4"/>
<!-- 140204813263640 -->
<g id="node1" class="node"><title>140204813263640</title>
<polygon fill="lightgrey" stroke="black" points="1220.5,-21 1092.5,-21 1092.5,-0 1220.5,-0 1220.5,-21"/>
<text text-anchor="middle" x="1156.5" y="-7.4" font-family="Times,serif" font-size="12.00">AddmmBackward</text>
</g>
<!-- 140204789621424 -->
<g id="node2" class="node"><title>140204789621424</title>
<polygon fill="lightblue" stroke="black" points="937.5,-91 871.5,-91 871.5,-57 937.5,-57 937.5,-91"/>
<text text-anchor="middle" x="904.5" y="-77.4" font-family="Times,serif" font-size="12.00">fc1.bias</text>
<text text-anchor="middle" x="904.5" y="-64.4" font-family="Times,serif" font-size="12.00"> (6)</text>
</g>
<!-- 140204789621424&#45;&gt;140204813263640 -->
<g id="edge1" class="edge"><title>140204789621424&#45;&gt;140204813263640</title>
<path fill="none" stroke="black" d="M937.815,-59.7893C940.734,-58.7902 943.658,-57.8441 946.5,-57 994.403,-42.7742 1049.67,-30.978 1091.48,-22.9638"/>
<polygon fill="black" stroke="black" points="1092.37,-26.3591 1101.54,-21.0594 1091.06,-19.4813 1092.37,-26.3591"/>
</g>
<!-- 140204813263400 -->
<g id="node3" class="node"><title>140204813263400</title>
<polygon fill="lightgrey" stroke="black" points="1065.5,-84.5 955.5,-84.5 955.5,-63.5 1065.5,-63.5 1065.5,-84.5"/>
<text text-anchor="middle" x="1010.5" y="-70.9" font-family="Times,serif" font-size="12.00">ViewBackward</text>
</g>
<!-- 140204813263400&#45;&gt;140204813263640 -->
<g id="edge2" class="edge"><title>140204813263400&#45;&gt;140204813263640</title>
<path fill="none" stroke="black" d="M1033.31,-63.3906C1057.85,-53.0554 1097.04,-36.5447 1124.62,-24.9284"/>
<polygon fill="black" stroke="black" points="1125.99,-28.1495 1133.85,-21.0419 1123.27,-21.6984 1125.99,-28.1495"/>
</g>
<!-- 140204813263160 -->
<g id="node4" class="node"><title>140204813263160</title>
<polygon fill="lightgrey" stroke="black" points="1084.5,-154.5 936.5,-154.5 936.5,-133.5 1084.5,-133.5 1084.5,-154.5"/>
<text text-anchor="middle" x="1010.5" y="-140.9" font-family="Times,serif" font-size="12.00">MaxPool2dBackward</text>
</g>
<!-- 140204813263160&#45;&gt;140204813263400 -->
<g id="edge3" class="edge"><title>140204813263160&#45;&gt;140204813263400</title>
<path fill="none" stroke="black" d="M1010.5,-133.257C1010.5,-123.259 1010.5,-107.422 1010.5,-94.7821"/>
<polygon fill="black" stroke="black" points="1014,-94.7246 1010.5,-84.7247 1007,-94.7247 1014,-94.7246"/>
</g>
<!-- 140204813262920 -->
<g id="node5" class="node"><title>140204813262920</title>
<polygon fill="lightgrey" stroke="black" points="938.5,-218 794.5,-218 794.5,-197 938.5,-197 938.5,-218"/>
<text text-anchor="middle" x="866.5" y="-204.4" font-family="Times,serif" font-size="12.00">ThresholdBackward</text>
</g>
<!-- 140204813262920&#45;&gt;140204813263160 -->
<g id="edge4" class="edge"><title>140204813262920&#45;&gt;140204813263160</title>
<path fill="none" stroke="black" d="M889,-196.891C913.094,-186.601 951.521,-170.189 978.701,-158.581"/>
<polygon fill="black" stroke="black" points="980.336,-161.688 988.158,-154.542 977.587,-155.251 980.336,-161.688"/>
</g>
<!-- 140204789621256 -->
<g id="node6" class="node"><title>140204789621256</title>
<polygon fill="lightgrey" stroke="black" points="863,-275 734,-275 734,-254 863,-254 863,-275"/>
<text text-anchor="middle" x="798.5" y="-261.4" font-family="Times,serif" font-size="12.00">ConvNdBackward</text>
</g>
<!-- 140204789621256&#45;&gt;140204813262920 -->
<g id="edge5" class="edge"><title>140204789621256&#45;&gt;140204813262920</title>
<path fill="none" stroke="black" d="M810.345,-253.92C820.265,-245.896 834.644,-234.266 846.367,-224.784"/>
<polygon fill="black" stroke="black" points="848.759,-227.351 854.333,-218.341 844.357,-221.908 848.759,-227.351"/>
</g>
<!-- 140204813264120 -->
<g id="node7" class="node"><title>140204813264120</title>
<polygon fill="lightgrey" stroke="black" points="728.5,-338.5 580.5,-338.5 580.5,-317.5 728.5,-317.5 728.5,-338.5"/>
<text text-anchor="middle" x="654.5" y="-324.9" font-family="Times,serif" font-size="12.00">MaxPool2dBackward</text>
</g>
<!-- 140204813264120&#45;&gt;140204789621256 -->
<g id="edge6" class="edge"><title>140204813264120&#45;&gt;140204789621256</title>
<path fill="none" stroke="black" d="M677,-317.391C701.094,-307.101 739.521,-290.689 766.701,-279.081"/>
<polygon fill="black" stroke="black" points="768.336,-282.188 776.158,-275.042 765.587,-275.751 768.336,-282.188"/>
</g>
<!-- 140204813264360 -->
<g id="node8" class="node"><title>140204813264360</title>
<polygon fill="lightgrey" stroke="black" points="585.5,-402 441.5,-402 441.5,-381 585.5,-381 585.5,-402"/>
<text text-anchor="middle" x="513.5" y="-388.4" font-family="Times,serif" font-size="12.00">ThresholdBackward</text>
</g>
<!-- 140204813264360&#45;&gt;140204813264120 -->
<g id="edge7" class="edge"><title>140204813264360&#45;&gt;140204813264120</title>
<path fill="none" stroke="black" d="M535.531,-380.891C559.123,-370.601 596.75,-354.189 623.363,-342.581"/>
<polygon fill="black" stroke="black" points="624.857,-345.748 632.623,-338.542 622.058,-339.332 624.857,-345.748"/>
</g>
<!-- 140204789623552 -->
<g id="node9" class="node"><title>140204789623552</title>
<polygon fill="lightgrey" stroke="black" points="512,-459 383,-459 383,-438 512,-438 512,-459"/>
<text text-anchor="middle" x="447.5" y="-445.4" font-family="Times,serif" font-size="12.00">ConvNdBackward</text>
</g>
<!-- 140204789623552&#45;&gt;140204813264360 -->
<g id="edge8" class="edge"><title>140204789623552&#45;&gt;140204813264360</title>
<path fill="none" stroke="black" d="M458.996,-437.92C468.625,-429.896 482.581,-418.266 493.96,-408.784"/>
<polygon fill="black" stroke="black" points="496.249,-411.431 501.691,-402.341 491.768,-406.054 496.249,-411.431"/>
</g>
<!-- 140204813264600 -->
<g id="node10" class="node"><title>140204813264600</title>
<polygon fill="lightgrey" stroke="black" points="380.5,-522.5 232.5,-522.5 232.5,-501.5 380.5,-501.5 380.5,-522.5"/>
<text text-anchor="middle" x="306.5" y="-508.9" font-family="Times,serif" font-size="12.00">MaxPool2dBackward</text>
</g>
<!-- 140204813264600&#45;&gt;140204789623552 -->
<g id="edge9" class="edge"><title>140204813264600&#45;&gt;140204789623552</title>
<path fill="none" stroke="black" d="M328.531,-501.391C352.123,-491.101 389.75,-474.689 416.363,-463.081"/>
<polygon fill="black" stroke="black" points="417.857,-466.248 425.623,-459.042 415.058,-459.832 417.857,-466.248"/>
</g>
<!-- 140204813265320 -->
<g id="node11" class="node"><title>140204813265320</title>
<polygon fill="lightgrey" stroke="black" points="237.5,-586 93.5,-586 93.5,-565 237.5,-565 237.5,-586"/>
<text text-anchor="middle" x="165.5" y="-572.4" font-family="Times,serif" font-size="12.00">ThresholdBackward</text>
</g>
<!-- 140204813265320&#45;&gt;140204813264600 -->
<g id="edge10" class="edge"><title>140204813265320&#45;&gt;140204813264600</title>
<path fill="none" stroke="black" d="M187.531,-564.891C211.123,-554.601 248.75,-538.189 275.363,-526.581"/>
<polygon fill="black" stroke="black" points="276.857,-529.748 284.623,-522.542 274.058,-523.332 276.857,-529.748"/>
</g>
<!-- 140204792188712 -->
<g id="node12" class="node"><title>140204792188712</title>
<polygon fill="lightgrey" stroke="black" points="164,-643 35,-643 35,-622 164,-622 164,-643"/>
<text text-anchor="middle" x="99.5" y="-629.4" font-family="Times,serif" font-size="12.00">ConvNdBackward</text>
</g>
<!-- 140204792188712&#45;&gt;140204813265320 -->
<g id="edge11" class="edge"><title>140204792188712&#45;&gt;140204813265320</title>
<path fill="none" stroke="black" d="M110.996,-621.92C120.625,-613.896 134.581,-602.266 145.96,-592.784"/>
<polygon fill="black" stroke="black" points="148.249,-595.431 153.691,-586.341 143.768,-590.054 148.249,-595.431"/>
</g>
<!-- 140204786768024 -->
<g id="node13" class="node"><title>140204786768024</title>
<polygon fill="lightblue" stroke="black" points="95,-713 0,-713 0,-679 95,-679 95,-713"/>
<text text-anchor="middle" x="47.5" y="-699.4" font-family="Times,serif" font-size="12.00">cnn1.weight</text>
<text text-anchor="middle" x="47.5" y="-686.4" font-family="Times,serif" font-size="12.00"> (32, 3, 3, 3)</text>
</g>
<!-- 140204786768024&#45;&gt;140204792188712 -->
<g id="edge12" class="edge"><title>140204786768024&#45;&gt;140204792188712</title>
<path fill="none" stroke="black" d="M61.1624,-678.842C68.4595,-670.211 77.4445,-659.585 84.8816,-650.789"/>
<polygon fill="black" stroke="black" points="87.6481,-652.938 91.4321,-643.042 82.3027,-648.418 87.6481,-652.938"/>
</g>
<!-- 140204786766288 -->
<g id="node14" class="node"><title>140204786766288</title>
<polygon fill="lightblue" stroke="black" points="191.5,-713 113.5,-713 113.5,-679 191.5,-679 191.5,-713"/>
<text text-anchor="middle" x="152.5" y="-699.4" font-family="Times,serif" font-size="12.00">cnn1.bias</text>
<text text-anchor="middle" x="152.5" y="-686.4" font-family="Times,serif" font-size="12.00"> (32)</text>
</g>
<!-- 140204786766288&#45;&gt;140204792188712 -->
<g id="edge13" class="edge"><title>140204786766288&#45;&gt;140204792188712</title>
<path fill="none" stroke="black" d="M138.575,-678.842C131.137,-670.211 121.98,-659.585 114.4,-650.789"/>
<polygon fill="black" stroke="black" points="116.903,-648.332 107.723,-643.042 111.6,-652.902 116.903,-648.332"/>
</g>
<!-- 140204813313864 -->
<g id="node15" class="node"><title>140204813313864</title>
<polygon fill="orange" stroke="black" points="283,-643 182,-643 182,-622 283,-622 283,-643"/>
<text text-anchor="middle" x="232.5" y="-629.4" font-family="Times,serif" font-size="12.00">(1, 32, 66, 66)</text>
</g>
<!-- 140204813313864&#45;&gt;140204813265320 -->
<g id="edge14" class="edge"><title>140204813313864&#45;&gt;140204813265320</title>
<path fill="none" stroke="black" d="M220.829,-621.92C211.055,-613.896 196.888,-602.266 185.337,-592.784"/>
<polygon fill="black" stroke="black" points="187.438,-589.981 177.488,-586.341 182.996,-595.391 187.438,-589.981"/>
</g>
<!-- 140204789252616 -->
<g id="node16" class="node"><title>140204789252616</title>
<polygon fill="orange" stroke="black" points="357,-586 256,-586 256,-565 357,-565 357,-586"/>
<text text-anchor="middle" x="306.5" y="-572.4" font-family="Times,serif" font-size="12.00">(1, 32, 66, 66)</text>
</g>
<!-- 140204789252616&#45;&gt;140204813264600 -->
<g id="edge15" class="edge"><title>140204789252616&#45;&gt;140204813264600</title>
<path fill="none" stroke="black" d="M306.5,-564.891C306.5,-556.366 306.5,-543.639 306.5,-532.923"/>
<polygon fill="black" stroke="black" points="310,-532.745 306.5,-522.745 303,-532.745 310,-532.745"/>
</g>
<!-- 140204802177096 -->
<g id="node17" class="node"><title>140204802177096</title>
<polygon fill="orange" stroke="black" points="476,-586 375,-586 375,-565 476,-565 476,-586"/>
<text text-anchor="middle" x="425.5" y="-572.4" font-family="Times,serif" font-size="12.00">(1, 32, 33, 33)</text>
</g>
<!-- 140204802177096&#45;&gt;140204813264600 -->
<g id="edge16" class="edge"><title>140204802177096&#45;&gt;140204813264600</title>
<path fill="none" stroke="black" d="M406.906,-564.891C387.345,-554.781 356.35,-538.763 333.969,-527.196"/>
<polygon fill="black" stroke="black" points="335.454,-524.024 324.963,-522.542 332.24,-530.242 335.454,-524.024"/>
</g>
<!-- 140204789623328 -->
<g id="node18" class="node"><title>140204789623328</title>
<polygon fill="lightblue" stroke="black" points="496,-529 399,-529 399,-495 496,-495 496,-529"/>
<text text-anchor="middle" x="447.5" y="-515.4" font-family="Times,serif" font-size="12.00">cnn2.weight</text>
<text text-anchor="middle" x="447.5" y="-502.4" font-family="Times,serif" font-size="12.00"> (64, 32, 3, 3)</text>
</g>
<!-- 140204789623328&#45;&gt;140204789623552 -->
<g id="edge17" class="edge"><title>140204789623328&#45;&gt;140204789623552</title>
<path fill="none" stroke="black" d="M447.5,-494.842C447.5,-487.012 447.5,-477.54 447.5,-469.282"/>
<polygon fill="black" stroke="black" points="451,-469.042 447.5,-459.042 444,-469.042 451,-469.042"/>
</g>
<!-- 140204789624392 -->
<g id="node19" class="node"><title>140204789624392</title>
<polygon fill="lightblue" stroke="black" points="592.5,-529 514.5,-529 514.5,-495 592.5,-495 592.5,-529"/>
<text text-anchor="middle" x="553.5" y="-515.4" font-family="Times,serif" font-size="12.00">cnn2.bias</text>
<text text-anchor="middle" x="553.5" y="-502.4" font-family="Times,serif" font-size="12.00"> (64)</text>
</g>
<!-- 140204789624392&#45;&gt;140204789623552 -->
<g id="edge18" class="edge"><title>140204789624392&#45;&gt;140204789623552</title>
<path fill="none" stroke="black" d="M525.65,-494.842C509.241,-485.322 488.646,-473.373 472.718,-464.131"/>
<polygon fill="black" stroke="black" points="474.352,-461.033 463.946,-459.042 470.839,-467.088 474.352,-461.033"/>
</g>
<!-- 140204791387080 -->
<g id="node20" class="node"><title>140204791387080</title>
<polygon fill="orange" stroke="black" points="631,-459 530,-459 530,-438 631,-438 631,-459"/>
<text text-anchor="middle" x="580.5" y="-445.4" font-family="Times,serif" font-size="12.00">(1, 64, 35, 35)</text>
</g>
<!-- 140204791387080&#45;&gt;140204813264360 -->
<g id="edge19" class="edge"><title>140204791387080&#45;&gt;140204813264360</title>
<path fill="none" stroke="black" d="M568.829,-437.92C559.055,-429.896 544.888,-418.266 533.337,-408.784"/>
<polygon fill="black" stroke="black" points="535.438,-405.981 525.488,-402.341 530.996,-411.391 535.438,-405.981"/>
</g>
<!-- 140204791388232 -->
<g id="node21" class="node"><title>140204791388232</title>
<polygon fill="orange" stroke="black" points="705,-402 604,-402 604,-381 705,-381 705,-402"/>
<text text-anchor="middle" x="654.5" y="-388.4" font-family="Times,serif" font-size="12.00">(1, 64, 35, 35)</text>
</g>
<!-- 140204791388232&#45;&gt;140204813264120 -->
<g id="edge20" class="edge"><title>140204791388232&#45;&gt;140204813264120</title>
<path fill="none" stroke="black" d="M654.5,-380.891C654.5,-372.366 654.5,-359.639 654.5,-348.923"/>
<polygon fill="black" stroke="black" points="658,-348.745 654.5,-338.745 651,-348.745 658,-348.745"/>
</g>
<!-- 140204787776072 -->
<g id="node22" class="node"><title>140204787776072</title>
<polygon fill="orange" stroke="black" points="824,-402 723,-402 723,-381 824,-381 824,-402"/>
<text text-anchor="middle" x="773.5" y="-388.4" font-family="Times,serif" font-size="12.00">(1, 64, 17, 17)</text>
</g>
<!-- 140204787776072&#45;&gt;140204813264120 -->
<g id="edge21" class="edge"><title>140204787776072&#45;&gt;140204813264120</title>
<path fill="none" stroke="black" d="M754.906,-380.891C735.345,-370.781 704.35,-354.763 681.969,-343.196"/>
<polygon fill="black" stroke="black" points="683.454,-340.024 672.963,-338.542 680.24,-346.242 683.454,-340.024"/>
</g>
<!-- 140204789622880 -->
<g id="node23" class="node"><title>140204789622880</title>
<polygon fill="lightblue" stroke="black" points="850.5,-345 746.5,-345 746.5,-311 850.5,-311 850.5,-345"/>
<text text-anchor="middle" x="798.5" y="-331.4" font-family="Times,serif" font-size="12.00">cnn3.weight</text>
<text text-anchor="middle" x="798.5" y="-318.4" font-family="Times,serif" font-size="12.00"> (128, 64, 3, 3)</text>
</g>
<!-- 140204789622880&#45;&gt;140204789621256 -->
<g id="edge22" class="edge"><title>140204789622880&#45;&gt;140204789621256</title>
<path fill="none" stroke="black" d="M798.5,-310.842C798.5,-303.012 798.5,-293.54 798.5,-285.282"/>
<polygon fill="black" stroke="black" points="802,-285.042 798.5,-275.042 795,-285.042 802,-285.042"/>
</g>
<!-- 140204789622768 -->
<g id="node24" class="node"><title>140204789622768</title>
<polygon fill="lightblue" stroke="black" points="946.5,-345 868.5,-345 868.5,-311 946.5,-311 946.5,-345"/>
<text text-anchor="middle" x="907.5" y="-331.4" font-family="Times,serif" font-size="12.00">cnn3.bias</text>
<text text-anchor="middle" x="907.5" y="-318.4" font-family="Times,serif" font-size="12.00"> (128)</text>
</g>
<!-- 140204789622768&#45;&gt;140204789621256 -->
<g id="edge23" class="edge"><title>140204789622768&#45;&gt;140204789621256</title>
<path fill="none" stroke="black" d="M878.862,-310.842C861.989,-301.322 840.811,-289.373 824.432,-280.131"/>
<polygon fill="black" stroke="black" points="825.841,-276.908 815.412,-275.042 822.401,-283.004 825.841,-276.908"/>
</g>
<!-- 140204787773704 -->
<g id="node25" class="node"><title>140204787773704</title>
<polygon fill="orange" stroke="black" points="989.5,-275 881.5,-275 881.5,-254 989.5,-254 989.5,-275"/>
<text text-anchor="middle" x="935.5" y="-261.4" font-family="Times,serif" font-size="12.00">(1, 128, 19, 19)</text>
</g>
<!-- 140204787773704&#45;&gt;140204813262920 -->
<g id="edge24" class="edge"><title>140204787773704&#45;&gt;140204813262920</title>
<path fill="none" stroke="black" d="M923.481,-253.92C913.414,-245.896 898.825,-234.266 886.929,-224.784"/>
<polygon fill="black" stroke="black" points="888.847,-221.837 878.846,-218.341 884.484,-227.311 888.847,-221.837"/>
</g>
<!-- 140204787776968 -->
<g id="node26" class="node"><title>140204787776968</title>
<polygon fill="orange" stroke="black" points="1064.5,-218 956.5,-218 956.5,-197 1064.5,-197 1064.5,-218"/>
<text text-anchor="middle" x="1010.5" y="-204.4" font-family="Times,serif" font-size="12.00">(1, 128, 19, 19)</text>
</g>
<!-- 140204787776968&#45;&gt;140204813263160 -->
<g id="edge25" class="edge"><title>140204787776968&#45;&gt;140204813263160</title>
<path fill="none" stroke="black" d="M1010.5,-196.891C1010.5,-188.366 1010.5,-175.639 1010.5,-164.923"/>
<polygon fill="black" stroke="black" points="1014,-164.745 1010.5,-154.745 1007,-164.745 1014,-164.745"/>
</g>
<!-- 140204787776200 -->
<g id="node27" class="node"><title>140204787776200</title>
<polygon fill="orange" stroke="black" points="1176,-218 1083,-218 1083,-197 1176,-197 1176,-218"/>
<text text-anchor="middle" x="1129.5" y="-204.4" font-family="Times,serif" font-size="12.00">(1, 128, 9, 9)</text>
</g>
<!-- 140204787776200&#45;&gt;140204813263160 -->
<g id="edge26" class="edge"><title>140204787776200&#45;&gt;140204813263160</title>
<path fill="none" stroke="black" d="M1110.91,-196.891C1091.34,-186.781 1060.35,-170.763 1037.97,-159.196"/>
<polygon fill="black" stroke="black" points="1039.45,-156.024 1028.96,-154.542 1036.24,-162.242 1039.45,-156.024"/>
</g>
<!-- 140204813265080 -->
<g id="node28" class="node"><title>140204813265080</title>
<polygon fill="lightgrey" stroke="black" points="1229.5,-84.5 1083.5,-84.5 1083.5,-63.5 1229.5,-63.5 1229.5,-84.5"/>
<text text-anchor="middle" x="1156.5" y="-70.9" font-family="Times,serif" font-size="12.00">TransposeBackward</text>
</g>
<!-- 140204813265080&#45;&gt;140204813263640 -->
<g id="edge27" class="edge"><title>140204813265080&#45;&gt;140204813263640</title>
<path fill="none" stroke="black" d="M1156.5,-63.3906C1156.5,-54.8657 1156.5,-42.1392 1156.5,-31.4235"/>
<polygon fill="black" stroke="black" points="1160,-31.2448 1156.5,-21.2449 1153,-31.2449 1160,-31.2448"/>
</g>
<!-- 140204787532632 -->
<g id="node29" class="node"><title>140204787532632</title>
<polygon fill="lightblue" stroke="black" points="1198,-161 1115,-161 1115,-127 1198,-127 1198,-161"/>
<text text-anchor="middle" x="1156.5" y="-147.4" font-family="Times,serif" font-size="12.00">fc1.weight</text>
<text text-anchor="middle" x="1156.5" y="-134.4" font-family="Times,serif" font-size="12.00"> (6, 10368)</text>
</g>
<!-- 140204787532632&#45;&gt;140204813265080 -->
<g id="edge28" class="edge"><title>140204787532632&#45;&gt;140204813265080</title>
<path fill="none" stroke="black" d="M1156.5,-126.885C1156.5,-117.309 1156.5,-105.088 1156.5,-94.9119"/>
<polygon fill="black" stroke="black" points="1160,-94.8946 1156.5,-84.8946 1153,-94.8946 1160,-94.8946"/>
</g>
<!-- 140204789091720 -->
<g id="node30" class="node"><title>140204789091720</title>
<polygon fill="orange" stroke="black" points="1325.5,-84.5 1247.5,-84.5 1247.5,-63.5 1325.5,-63.5 1325.5,-84.5"/>
<text text-anchor="middle" x="1286.5" y="-70.9" font-family="Times,serif" font-size="12.00">(1, 10368)</text>
</g>
<!-- 140204789091720&#45;&gt;140204813263640 -->
<g id="edge29" class="edge"><title>140204789091720&#45;&gt;140204813263640</title>
<path fill="none" stroke="black" d="M1266.19,-63.3906C1244.63,-53.1908 1210.35,-36.9763 1185.86,-25.3875"/>
<polygon fill="black" stroke="black" points="1187.21,-22.1545 1176.67,-21.0419 1184.21,-28.4822 1187.21,-22.1545"/>
</g>
<!-- 140204787777224 -->
<g id="node31" class="node"><title>140204787777224</title>
<polygon fill="orange" stroke="black" points="1421.5,-84.5 1343.5,-84.5 1343.5,-63.5 1421.5,-63.5 1421.5,-84.5"/>
<text text-anchor="middle" x="1382.5" y="-70.9" font-family="Times,serif" font-size="12.00">(10368, 6)</text>
</g>
<!-- 140204787777224&#45;&gt;140204813263640 -->
<g id="edge30" class="edge"><title>140204787777224&#45;&gt;140204813263640</title>
<path fill="none" stroke="black" d="M1354.94,-63.4383C1348.28,-61.2309 1341.16,-58.9578 1334.5,-57 1291.84,-44.4564 1242.87,-32.0826 1207.1,-23.4129"/>
<polygon fill="black" stroke="black" points="1207.92,-20.0103 1197.38,-21.0687 1206.28,-26.8153 1207.92,-20.0103"/>
</g>
</g>
</svg>
